<?xml version="1.0" encoding="utf-8"?>
<!-- Generator: Adobe Illustrator 19.2.1, SVG Export Plug-In . SVG Version: 6.00 Build 0)  -->
<svg version="1.1" id="Слой_1" xmlns="http://www.w3.org/2000/svg" xmlns:xlink="http://www.w3.org/1999/xlink" x="0px" y="0px"
	 viewBox="0 0 16 16" style="enable-background:new 0 0 16 16;" xml:space="preserve">
<style type="text/css">
	.st0{fill:none;stroke:#000000;stroke-width:0.1;stroke-miterlimit:10;}
	.st1{fill:none;stroke:#000000;stroke-miterlimit:10;}
	.st2{stroke:#000000;stroke-width:4;stroke-miterlimit:10;}
	.st3{fill:none;stroke:#000000;stroke-width:4;stroke-miterlimit:10;}
	.st4{fill:none;stroke:#000000;stroke-width:1.3;stroke-miterlimit:10;}
</style>
<g>
	<path d="M13.5,13.1C13.5,13.1,13.5,13.1,13.5,13.1c-0.4,0-0.9,0-1.5,0.1c-0.2,0-0.3,0-0.5,0c-0.4,0-0.6-0.1-1.1-0.1
		c-0.2,0-0.5,0-0.5,0c-0.2-0.1-0.3-0.1-0.3-0.1c-0.1-0.1-0.1-0.1-0.2-0.2c-0.2-0.1-0.3-0.1-0.6-0.2c-0.1,0-0.4-0.1-0.6-0.3
		c-0.3-0.2-0.4-0.5-0.4-0.5c0,0-0.1,0.1-0.4,0.4c-0.2,0.2-0.3,0.3-0.4,0.4c-0.1,0-0.1,0-0.2,0.1c-0.1,0.1-0.1,0.1-0.2,0.2
		c-0.1,0.1-0.2,0-0.4,0.1c-0.1,0-0.1,0-0.4,0.2c-0.2,0.1-0.4,0.1-0.4,0.1c-0.3,0-0.4,0-0.6,0c-0.1,0-0.4,0-1.2,0c-0.6,0-0.7,0-1.2,0
		l-0.1,0.5l1.2-0.3l0,1.2l1.2-0.5l0.2,1.2l1-0.7l0.5,1.2L7.3,15L8,16l0.7-1l0.9,0.9l0.5-1.2l1,0.7l0.2-1.2l1.2,0.5l0-1.2l1.2,0.3
		L13.5,13.1z"/>
	<path d="M1,8.7L0.2,9.6L1.3,10l-0.1,0.2c0.3,0,0.4,0,0.5,0.1c0.1,0,0.8,0.2,1.1,0.2c0.2,0,0.6,0.1,0.8,0.1c0.4,0,0.6,0.1,0.8-0.2
		c0-0.1,0.1-0.3,0.2-0.6c0.1-0.4,0.1-0.5,0.1-0.5s0-0.1,0.1-0.3c0-0.2,0-0.2,0-0.4c0-0.2,0.1-0.4,0.1-0.5C4.9,8.1,5,7.9,5,7.8
		c0-0.2,0.3-0.5,0.3-0.6C5.5,7,5.6,6.8,5.6,6.6c0-0.2,0.1-0.3,0.1-0.4c0-0.1,0-0.1,0.2-0.2c0.2-0.2,0.4-0.3,0.4-0.3
		c0.1-0.2,0.1-0.4,0.1-0.5c0-0.1,0.1-0.1,0.1-0.2c0,0,0.1-0.3,0.1-0.4c0-0.1,0.1-0.4,0.3-0.9c0-0.1,0.1-0.3,0.2-1
		c0-0.5,0.1-0.6,0-0.7C7,1.8,7,1.5,7,1.4c0,0,0-0.1,0.2,0c0,0,0.1,0,0.1,0c0.1,0,0.1,0,0.2,0c0.1,0,0.1,0.1,0.2,0.1
		c0.1,0,0.1,0.1,0.2,0.2c0,0,0,0,0,0c0,0,0.1-0.1,0.2-0.1c0.1-0.1,0.1-0.1,0.2-0.1c0,0,0.1,0,0.3,0c0.1,0,0.2,0,0.2,0
		c0,0.1,0,0.2,0,0.3c0,0,0,0.1,0,0.4c0,0.3,0.1,0.5,0.2,0.8c0.1,0.2,0,0.5,0.1,0.6C9,3.5,9,3.7,9,3.8C9,4,9,4,9.1,4.4
		c0,0.2,0,0.4,0.1,0.6c0,0.1,0.1,0.2,0.1,0.3c0,0.3,0,0.3,0.1,0.6C9.4,6,9.5,6.1,9.6,6.1c0.1,0.1,0.1,0.1,0.2,0.3
		C9.9,6.5,10,6.6,10,6.7c0.1,0.2,0.1,0.2,0.1,0.6c0,0.2,0,0.3,0.1,0.4c0.1,0.2,0.2,0.2,0.3,0.2c0,0.1,0,0.2,0,0.4
		c0.2,0.4,0.2,0.4,0.5,1c0.2,0.4,0.1,0.5,0.3,0.7c0.2,0.2,0.4,0.3,0.6,0.3c0.3,0.1,0.5,0.1,0.8,0c1-0.1,1.4-0.3,2-0.4
		c0.2-0.1,0,0,0.5-0.1l0.7-0.3L15,8.7L16,8l-1-0.7l0.9-0.9L14.7,6l0.7-1l-1.2-0.2l0.5-1.2l-1.2,0l0.3-1.2l-1.2,0.3l0-1.2l-1.2,0.5
		l-0.2-1.2l-1,0.7L9.6,0.2L8.7,1L8,0L7.3,1L6.4,0.2L6,1.3l-1-0.7L4.7,1.8L3.6,1.3l0,1.2L2.3,2.3l0.3,1.2l-1.2,0l0.5,1.2L0.6,4.9
		l0.7,1L0.2,6.4L1,7.3L0,8L1,8.7z"/>
</g>
<path class="st0" d="M5.1,7.8C5.1,7.9,5.1,7.9,5.1,7.8c0.2,0.1,0.3,0,0.4-0.1c0.1-0.1,0.2-0.1,0.2-0.2c0-0.1,0-0.2,0-0.2
	c0-0.1,0-0.1-0.1-0.1c-0.1,0-0.2,0.1-0.3,0.2C5.2,7.5,5,7.7,5.1,7.8z"/>
<path class="st1" d="M5.1,7.4"/>
<g>
	<g>
		<path d="M5.9,6.4C5.8,6.3,5.7,6.3,5.5,6.3c-0.1,0-0.1,0.1,0,0.1C5.6,6.4,5.7,6.4,5.9,6.4C5.9,6.5,5.9,6.4,5.9,6.4L5.9,6.4z"/>
	</g>
</g>
<path class="st2" d="M5.5,6.3"/>
<g>
	<g>
		<path d="M5.6,7.1C6.3,6.9,6.8,6.4,7.4,6c0.1-0.1,0.3-0.3,0.4-0.3c0.3-0.1,0.6,0.1,0.9,0.2c0.5,0.2,1.1,0.4,1,1
			c0,0.1,0.1,0.1,0.1,0c0-0.4,0-0.5-0.3-0.7C9.3,6,8.9,5.9,8.6,5.8C8.4,5.6,8.2,5.5,8,5.5c-0.3,0-0.7,0.4-0.9,0.6
			C6.6,6.4,6.1,6.8,5.6,7.1C5.5,7.1,5.6,7.2,5.6,7.1L5.6,7.1z"/>
	</g>
</g>
<g>
	<path d="M7,5.1C7,5,6.9,5,6.8,5C6.7,5,6.7,5,6.6,5C6.6,5,6.5,5,6.4,5"/>
	<g>
		<path d="M7,5C6.8,5,6.6,5,6.4,5C6.3,5,6.3,5,6.4,5.1C6.6,5.1,6.8,5.1,7,5C7,5.1,7.1,5,7,5L7,5z"/>
	</g>
</g>
<g>
	<g>
		<path d="M7.5,5.7C7.3,5.6,7.2,5.5,7,5.5c-0.3,0-0.5,0.1-0.8,0.1c-0.1,0-0.1,0.1,0,0.1c0.2,0,0.3,0,0.5,0C7,5.6,7.2,5.6,7.5,5.7
			C7.5,5.8,7.5,5.7,7.5,5.7L7.5,5.7z"/>
	</g>
</g>
<g>
	<g>
		<path d="M8,5.7C8,5.7,8,5.8,8,5.7c0,0.2,0.1,0.1,0.1,0.1C8.1,5.8,8,5.7,8,5.7C8,5.6,7.9,5.7,8,5.7L8,5.7z"/>
	</g>
</g>
<g>
	<g>
		<path d="M6.6,6.5c0,0.1,0,0.1,0.1,0.2c0,0.1,0.1,0,0.1,0C6.8,6.6,6.8,6.6,6.6,6.5C6.7,6.5,6.6,6.5,6.6,6.5L6.6,6.5z"/>
	</g>
</g>
<g>
	<g>
		<path d="M8.9,5.2C9,5.1,9.2,5.1,9.3,5c0,0,0-0.1-0.1-0.1C9.1,5,9,5.1,8.9,5.2C8.8,5.1,8.8,5.2,8.9,5.2L8.9,5.2z"/>
	</g>
</g>
<path class="st0" d="M7.9,5.6c0-0.1,0-0.2,0-0.4c0-0.2,0-0.2,0-0.4c0-0.2,0-0.2,0-0.3c0-0.2,0-0.2,0-0.3c0-0.2,0-0.2,0-0.3
	c0-0.2,0-0.2,0-0.3c0-0.1,0-0.1,0-0.4c0-0.4,0-0.4,0-0.6c0-0.1,0-0.1,0-0.3c0-0.1,0-0.2,0-0.4c0-0.1,0-0.1,0-0.2c0-0.1,0-0.2,0-0.3"
	/>
<path class="st0" d="M7,2c0,0,0.1,0,0.2,0C7.2,2,7.3,2,7.3,1.9c0.1-0.1,0.1-0.2,0.1-0.2c0-0.1,0-0.2-0.1-0.3c0,0-0.1-0.1-0.1-0.1"/>
<path class="st0" d="M8.3,1.2c0,0.1,0,0.2,0,0.2c0,0.1,0,0.1,0,0.2c0,0,0,0.1,0.1,0.2c0,0,0.1,0.1,0.1,0.1c0,0,0.1,0,0.1,0
	c0.1,0,0.1,0,0.1,0"/>
<g>
	<g>
		<path d="M7.2,3.4C7.1,3.3,7,3.3,6.9,3.3c-0.1,0,0,0.1,0,0.1C7,3.4,7.1,3.5,7.2,3.4C7.2,3.5,7.2,3.5,7.2,3.4L7.2,3.4z"/>
	</g>
</g>
<g>
	<g>
		<path d="M8.7,3.4c0.1,0,0.2,0,0.3-0.1c0,0,0-0.1-0.1-0.1C8.9,3.3,8.8,3.3,8.7,3.4C8.7,3.3,8.6,3.4,8.7,3.4L8.7,3.4z"/>
	</g>
</g>
<path class="st3" d="M6,7.1"/>
<path class="st0" d="M6.8,6.4c0.2,0,0.3,0,0.4,0c0.1,0,0.2,0,0.3,0c0.2,0,0.2,0,0.2,0c0.1,0,0.2,0,0.3,0c0,0,0.1,0,0.2,0.1
	c0.1,0,0.1,0,0.2,0.1c0.2,0.1,0.2,0.1,0.3,0.1c0,0,0.1,0.1,0.1,0.2"/>
<path class="st0" d="M5.2,7.9C5.4,8,5.5,8,5.6,8c0.1,0,0.3-0.1,0.4-0.2c0.1-0.1,0.1-0.1,0.3-0.2c0.1-0.1,0.1-0.1,0.2-0.1
	c0.2-0.1,0.2-0.1,0.3-0.2C6.9,7.2,6.9,7.2,7,7.1C7.1,7,7.1,7,7.3,7c0.3-0.2,0.3-0.2,0.5-0.3c0.1,0,0.3,0,0.4,0c0.1,0,0.3,0,0.3,0.1
	c0.2,0,0.2,0.1,0.3,0.1c0.2,0,0.2,0,0.4,0c0.1,0,0.2,0,0.3,0.1C9.6,7,9.6,7.1,9.8,7.2C10,7.3,10,7.3,10.1,7.4
	c0.1,0.1,0.1,0.2,0.1,0.2"/>
<g>
	<g>
		<path d="M7.9,7c0,0.1,0,0.2,0,0.2c0,0.1,0.1,0,0.1,0C8,7.1,8,7.1,7.9,7C8,6.9,7.9,6.9,7.9,7L7.9,7z"/>
	</g>
</g>
<path class="st0" d="M10.5,8.2c0,0,0,0.1-0.1,0.1c-0.1,0.1-0.4,0-0.6-0.2C9.7,8,9.7,7.9,9.5,7.8C9.4,7.7,9.3,7.6,9.2,7.6
	c-0.2-0.1-0.2,0-0.7,0c-0.2,0-0.3,0-0.3,0C8,7.7,8,7.8,7.8,7.9C7.6,8,7.5,8,7.4,8.1c-0.1,0.1,0,0.2-0.1,0.3c0,0.1-0.1,0.1-0.1,0.1
	C7,8.7,7,9,7,9.6c0,0.2,0,0.4,0,0.7c0,0.4,0,0.5,0,0.8c0,0.2,0,0.5-0.1,0.8c-0.1,0.2-0.1,0.3-0.1,0.4c-0.1,0.1-0.1,0.2-0.1,0.3
	c0,0.1,0,0.3,0,0.4"/>
<path class="st0" d="M7.7,11.8c0-0.1,0.1-0.1,0.1-0.2c0.1-0.3,0-0.4,0.1-0.8c0-0.3,0.1-0.5,0.1-0.6c0-0.2,0.1-0.2,0.1-0.4
	c0.1-0.2,0.1-0.3,0.2-0.5c0-0.1,0-0.2,0-0.3c0-0.2-0.1-0.3-0.2-0.5C8.1,8.4,7.9,8.2,7.8,7.9"/>
<g>
	<g>
		<path d="M7.6,8.1C7.8,8.3,7.9,8.5,8,8.8c0,0.1,0.1,0,0.1,0C8,8.5,7.8,8.3,7.6,8.1C7.6,8,7.5,8.1,7.6,8.1L7.6,8.1z"/>
	</g>
</g>
<path class="st0" d="M8.4,9.4c0,0.1,0.1,0.3,0.1,0.5c0,0.1,0,0.1,0,0.4c0,0.2,0,0.4,0,0.8c0,0.3,0,0.3,0.1,0.4
	c0.1,0.1,0.1,0.1,0.3,0.3C9,11.9,9,12,9.1,12.1c0.1,0.1,0.1,0.4,0.2,0.6"/>
<g>
	<g>
		<path d="M9.4,12.6c0.1,0.2,0.2,0.4,0.4,0.6c0,0,0.1,0,0.1-0.1C9.6,12.9,9.5,12.8,9.4,12.6C9.4,12.5,9.3,12.5,9.4,12.6L9.4,12.6z"
			/>
	</g>
</g>
<g>
	<g>
		<path d="M11.4,10.8c0.1-0.2,0.1-0.3,0.1-0.5c0-0.1-0.1,0-0.1,0C11.4,10.4,11.4,10.6,11.4,10.8C11.3,10.8,11.4,10.8,11.4,10.8
			L11.4,10.8z"/>
	</g>
</g>
<path class="st4" d="M8.7,6.2"/>
<path class="st0" d="M9.8,6.7c0,0,0.1,0.1,0.1,0.1C10,6.9,10,7,10,7.1c0,0.1,0.1,0.2,0.2,0.3"/>
<path class="st4" d="M7,4.6"/>
</svg>
